<svg width="529" height="508" viewBox="0 0 529 508" fill="none" xmlns="http://www.w3.org/2000/svg">
<path d="M381.374 434.911C382.493 435.114 383.56 435.54 384.511 436.165C385.462 436.79 386.278 437.6 386.909 438.547C388.159 440.458 388.957 442.63 389.242 444.896C389.904 449.237 388.667 454.154 387.006 458.224C382.611 456.053 380.321 450.908 379.333 448.206C377.759 443.93 377.51 435.258 381.374 434.911Z" fill="#EBEBEB"/>
<path d="M393.03 464.008C392.461 462.869 392.202 461.6 392.281 460.329C392.359 459.058 392.771 457.83 393.475 456.769C394.2 455.722 395.126 454.83 396.2 454.144C397.273 453.459 398.472 452.993 399.727 452.775C400.292 452.613 400.886 452.577 401.468 452.669C402.049 452.761 402.603 452.979 403.091 453.307C403.493 453.684 403.786 454.162 403.938 454.691C404.091 455.22 404.098 455.78 403.959 456.313C403.672 457.379 403.107 458.349 402.32 459.124C399.77 461.892 396.796 464.106 393.03 464.008Z" fill="#EBEBEB"/>
<path d="M391.999 478.183C391.933 477.887 391.896 477.585 391.891 477.282C391.836 476.642 391.76 475.817 391.673 474.818C391.369 472.101 391.501 469.353 392.064 466.678C392.673 463.994 393.988 461.521 395.874 459.515C396.452 458.918 397.101 458.394 397.806 457.952C397.994 457.828 398.19 457.716 398.392 457.616C398.522 457.551 398.598 457.518 398.609 457.529C397.005 458.572 395.626 459.925 394.554 461.51C393.483 463.094 392.739 464.878 392.368 466.754C391.817 469.401 391.659 472.115 391.901 474.807C391.956 475.893 391.999 476.685 392.01 477.271C392.032 477.575 392.028 477.88 391.999 478.183Z" fill="#E0E0E0"/>
<path d="M382.144 441.423C382.205 441.54 382.252 441.664 382.285 441.792L382.654 442.877C382.958 443.81 383.381 445.156 383.902 446.838C384.923 450.181 386.279 454.826 387.669 459.993C389.058 465.159 390.186 469.869 390.924 473.288C391.315 474.992 391.619 476.381 391.825 477.336C391.912 477.792 391.988 478.161 392.042 478.422C392.073 478.55 392.091 478.681 392.097 478.812C392.049 478.688 392.009 478.561 391.977 478.432C391.912 478.15 391.814 477.792 391.706 477.347C391.456 476.359 391.12 474.992 390.707 473.32C389.872 469.923 388.7 465.235 387.31 460.069C385.921 454.902 384.608 450.301 383.642 446.893L382.492 442.899C382.361 442.454 382.264 442.096 382.188 441.813C382.161 441.685 382.146 441.554 382.144 441.423Z" fill="#E0E0E0"/>
<path d="M387.582 468.252C386.458 465.812 384.769 463.676 382.655 462.018C380.542 460.361 378.063 459.232 375.426 458.723C374.091 458.473 372.441 458.527 371.703 459.678C370.965 460.828 371.616 462.348 372.43 463.455C374.168 465.723 376.539 467.425 379.244 468.344C381.949 469.264 384.865 469.36 387.625 468.621" fill="#EBEBEB"/>
<path d="M377.097 462.565C377.38 462.579 377.66 462.622 377.933 462.695C378.263 462.747 378.589 462.819 378.91 462.912C379.279 463.021 379.724 463.118 380.18 463.292C380.636 463.466 381.157 463.639 381.678 463.889C382.24 464.139 382.787 464.422 383.316 464.736C384.539 465.449 385.675 466.302 386.703 467.275C387.718 468.251 388.614 469.344 389.372 470.531C389.702 471.052 389.999 471.592 390.262 472.148C390.504 472.626 390.714 473.119 390.892 473.624C391.053 474.04 391.19 474.464 391.304 474.894C391.405 475.21 391.482 475.533 391.532 475.86C391.606 476.137 391.65 476.421 391.663 476.707C391.597 476.707 391.402 475.513 390.686 473.711C390.497 473.216 390.276 472.734 390.024 472.268C389.756 471.722 389.455 471.193 389.123 470.683C388.367 469.504 387.482 468.412 386.486 467.427C385.471 466.477 384.362 465.634 383.175 464.909C382.611 464.594 382.09 464.291 381.558 464.052C381.026 463.813 380.549 463.618 380.104 463.433C378.28 462.825 377.076 462.63 377.097 462.565Z" fill="#E0E0E0"/>
<path d="M456.706 395.177C454.183 392.73 451.792 390.15 449.543 387.449C447.159 384.868 444.909 382.166 442.803 379.353C447.715 384.377 452.356 389.659 456.706 395.177Z" fill="#E0E0E0"/>
<path d="M461.08 395.09C459.486 392.284 458.061 389.384 456.815 386.407C455.393 383.498 454.143 380.509 453.07 377.453C454.657 380.262 456.077 383.161 457.325 386.136C458.748 389.046 460.002 392.035 461.08 395.09Z" fill="#E0E0E0"/>
<path d="M466.887 378.257C467.06 378.257 465.932 381.86 465.4 386.407C464.868 390.955 465.085 394.667 464.911 394.678C464.693 393.886 464.591 393.067 464.607 392.246C464.518 390.272 464.594 388.293 464.835 386.331C465.071 384.374 465.467 382.439 466.018 380.547C466.198 379.746 466.49 378.975 466.887 378.257Z" fill="#E0E0E0"/>
<path d="M269.78 490.566C269.015 489.967 268.309 489.295 267.675 488.558C266.285 487.137 264.625 485.433 262.802 483.544L257.918 478.53C257.208 477.864 256.558 477.138 255.975 476.359C256.779 476.907 257.525 477.536 258.2 478.237C259.513 479.453 261.293 481.178 263.203 483.143C265.113 485.107 266.785 486.93 267.968 488.276C268.645 488.979 269.252 489.746 269.78 490.566Z" fill="#E0E0E0"/>
<path d="M277.03 490.924C274.947 488.134 273.013 485.236 271.234 482.242C269.298 479.344 267.519 476.344 265.906 473.255C267.992 476.046 269.93 478.944 271.712 481.938C273.647 484.835 275.422 487.835 277.03 490.924Z" fill="#E0E0E0"/>
<path d="M284.92 472.582C284.731 473.525 284.477 474.453 284.161 475.361C282.889 479.794 282.231 484.381 282.207 488.993C282.258 489.951 282.24 490.913 282.153 491.869C281.916 490.929 281.799 489.962 281.806 488.993C281.605 484.326 282.274 479.663 283.781 475.242C284.041 474.309 284.425 473.415 284.92 472.582Z" fill="#E0E0E0"/>
<path d="M465.147 135.165C485.25 127.047 494.966 104.168 486.848 84.065C478.729 63.9617 455.851 54.2457 435.748 62.364C415.645 70.4822 405.929 93.3603 414.047 113.464C422.165 133.567 445.043 143.283 465.147 135.165Z" fill="#E0E0E0"/>
<path d="M465.153 130.835C485.256 122.716 494.972 99.8383 486.854 79.7349C478.736 59.6315 455.858 49.9156 435.754 58.0338C415.651 66.152 405.935 89.0301 414.053 109.134C422.172 129.237 445.05 138.953 465.153 130.835Z" fill="#EBEBEB"/>
<path d="M450.455 120.762C464.979 120.762 476.752 108.989 476.752 94.4648C476.752 79.9411 464.979 68.1673 450.455 68.1673C435.931 68.1673 424.157 79.9411 424.157 94.4648C424.157 108.989 435.931 120.762 450.455 120.762Z" fill="white"/>
<path d="M460.031 103.038C464.777 97.7454 464.333 89.6074 459.04 84.8617C453.747 80.1159 445.609 80.5595 440.864 85.8524C436.118 91.1454 436.561 99.2834 441.854 104.029C447.147 108.775 455.285 108.331 460.031 103.038Z" fill="#EBEBEB"/>
<path d="M482.027 61.2212L480.953 52.8425L489.483 43.7148L490.091 52.7556L482.027 61.2212Z" fill="#EBEBEB"/>
<path d="M500.326 54.5573L491.676 53.8518L483.004 62.1871L491.676 63.1205L500.326 54.5573Z" fill="#EBEBEB"/>
<path d="M490.872 50.5199L477.11 64.4663L455.263 86.6071C453.58 88.3002 451.909 90.0041 450.238 91.6972C448.566 93.3904 451.128 95.7998 452.723 94.1826L466.496 80.2253L488.344 58.0955C490.015 56.3879 491.69 54.6912 493.369 53.0053C494.953 51.3881 492.468 48.9027 490.872 50.5199Z" fill="#E0E0E0"/>
<path d="M346.48 58.3017C347.132 53.5371 340.403 49.6191 335.345 49.1958C332.925 49.0113 330.417 49.3803 328.138 48.5772C323.178 46.8515 321.203 40.4589 316.373 38.4185C312.759 36.8882 308.602 38.2448 305.097 40.0139C301.591 41.783 298.129 43.9971 294.243 44.2467C290.836 44.4638 287.135 43.1614 284.161 44.8653C281.99 46.1026 280.775 48.6531 278.734 50.1617C276.694 51.6704 274.121 51.9525 271.636 52.0936C269.151 52.2347 266.589 52.2456 264.321 53.2875C262.053 54.3294 260.197 56.7063 260.663 59.1483L346.48 58.3017Z" fill="#EBEBEB"/>
<path d="M106.536 84.3495C107.155 79.8454 100.816 76.1553 96.0408 75.7646C93.7724 75.5801 91.4064 75.9274 89.2575 75.1785C84.5905 73.5505 82.7455 67.5812 78.1654 65.6059C74.7683 64.1733 70.8503 65.4431 67.5509 67.1037C64.2515 68.7642 61.0389 70.8589 57.2945 71.0977C54.0385 71.3039 50.6089 70.11 47.7979 71.6729C45.7141 72.845 44.6179 75.2545 42.686 76.6763C40.7541 78.098 38.3447 78.3585 36.0004 78.4887C33.6561 78.619 31.2466 78.6407 29.1085 79.5741C26.9704 80.5075 25.2231 82.8301 25.6572 85.0984L106.536 84.3495Z" fill="#EBEBEB"/>
<path d="M198.148 27.4892C198.637 23.951 193.644 21.0532 189.9 20.7493C188.109 20.5974 186.253 20.8796 184.56 20.2826C180.892 19.0019 179.427 14.2699 175.878 12.7613C173.208 11.676 170.125 12.6311 167.531 13.9443C164.937 15.2576 162.376 16.8855 159.478 17.07C156.949 17.2328 154.214 16.2995 152.011 17.5367C150.361 18.4484 149.504 20.3477 147.985 21.4656C146.407 22.4366 144.583 22.9304 142.732 22.8874C140.884 22.8411 139.044 23.1392 137.305 23.7665C135.634 24.5371 134.244 26.3062 134.592 28.1078L198.148 27.4892Z" fill="#F5F5F5"/>
<path d="M115.533 157.37C116.022 153.843 111.029 150.934 107.285 150.631C105.494 150.489 103.638 150.761 101.945 150.175C98.2765 148.894 96.8113 144.151 93.2623 142.643C90.5924 141.557 87.5101 142.523 84.9161 143.826C82.3222 145.128 79.75 146.778 76.8521 146.962C74.3342 147.125 71.5992 146.181 69.3959 147.418C67.7462 148.33 66.8888 150.229 65.3694 151.347C63.7803 152.313 61.9426 152.793 60.0838 152.725C58.235 152.677 56.3938 152.979 54.6572 153.615C52.9858 154.375 51.5965 156.155 51.9438 157.957L115.533 157.37Z" fill="#F5F5F5"/>
<path d="M435.021 15.3444C435.51 11.8062 430.517 8.89752 426.773 8.60448C424.982 8.45253 423.126 8.72387 421.433 8.13779C417.765 6.8571 416.299 2.12507 412.75 0.616461C410.081 -0.468867 406.998 0.486222 404.404 1.78862C401.81 3.09101 399.249 4.74071 396.351 4.92521C393.822 5.08801 391.087 4.15463 388.884 5.38105C387.234 6.30358 386.377 8.19205 384.858 9.30994C383.26 10.2984 381.407 10.7965 379.529 10.7426C377.681 10.6963 375.841 10.9944 374.102 11.6217C372.431 12.3923 371.041 14.1614 371.389 15.963L435.021 15.3444Z" fill="#F5F5F5"/>
<path d="M370.846 118.255C371.334 114.717 366.342 111.819 362.597 111.515C360.807 111.374 358.951 111.646 357.258 111.049C353.589 109.779 352.124 105.036 348.575 103.527C345.894 102.442 342.812 103.397 340.218 104.71C337.624 106.024 335.063 107.652 332.165 107.836C329.636 107.999 326.901 107.065 324.698 108.303C323.059 109.214 322.191 111.114 320.682 112.232C319.104 113.2 317.28 113.693 315.429 113.653C313.581 113.609 311.741 113.907 310.002 114.533C308.331 115.303 306.942 117.072 307.289 118.874L370.846 118.255Z" fill="#F5F5F5"/>
<path d="M134.516 213.428L184.387 161.875L198.366 166.607L247.26 248.657L276.184 263.45L300.929 335.397L224.978 331.468L134.516 213.428Z" fill="#E0E0E0"/>
<path d="M528.099 306.581C528.154 306.723 410.352 351.785 265.016 407.202C119.679 462.619 1.75826 507.454 1.69314 507.302C1.62802 507.15 119.419 462.109 264.809 406.692C410.2 351.275 528.045 306.429 528.099 306.581Z" fill="#263238"/>
<path d="M430.279 43.3133C427.93 43.8216 425.529 44.0511 423.126 43.9971C419.618 43.9734 416.246 42.6377 413.673 40.2527C410.873 37.4742 409.429 33.2197 406.358 30.8103C403.612 28.6397 399.358 28.7482 396.395 30.539V50.0749C397.892 48.9027 400.671 46.5259 404.914 48.6097C406.586 49.4346 408.094 50.3354 409.712 51.3013C414.248 54.0255 418.915 53.8084 423.691 51.6703C426.5 50.2798 428.98 48.3036 430.962 45.8747C432.352 44.3552 431.255 43.1071 430.279 43.3133Z" fill="#FF5100"/>
<path d="M396.395 26.686C396.547 26.686 396.677 36.454 396.677 48.4469C396.677 60.4398 396.547 70.1534 396.395 70.1534C396.243 70.1534 396.112 60.3855 396.112 48.4469C396.112 36.5083 396.232 26.686 396.395 26.686Z" fill="#263238"/>
<path d="M510.473 191.146L483.167 179.196L408.474 71.9008L388.428 64.6508L306.985 154.028L284.367 166.4L199.397 254.79L177.462 274.987L294.645 395.177L529 305.876V229.686L510.473 191.146Z" fill="#EBEBEB"/>
<path d="M408.474 71.9008L388.428 64.6508L346.589 110.56L389.861 75.4064L402.006 92.6523C402.44 92.5112 407.085 85.2178 407.085 85.2178C407.085 85.2178 428.792 101.15 428.531 100.716C428.271 100.282 408.474 71.9008 408.474 71.9008Z" fill="white"/>
<path d="M199.776 255.506L296.349 180.325L335.649 171.241L365.484 89.8196L306.985 154.028L284.367 166.4L199.776 255.506Z" fill="#E0E0E0"/>
<path d="M483.167 179.196L504.265 198.494L529 229.686L510.473 191.146L483.167 179.196Z" fill="#E0E0E0"/>
<path d="M199.776 255.506L200.156 255.083L201.307 253.845L205.822 249.037L222.981 230.869L284.193 166.238L306.812 153.811H306.746L371.953 82.1789C377.423 76.1662 382.832 70.2294 388.179 64.3686L388.298 64.2275L388.482 64.2927L408.529 71.5535H408.605L408.659 71.6186L483.286 178.968L483.199 178.903L510.484 190.842H510.539V190.896L523.139 217.248C524.572 220.287 525.679 222.62 526.395 224.205C526.753 224.986 527.036 225.583 527.231 225.985L527.502 226.604C527.502 226.604 527.383 226.408 527.187 226.007L526.319 224.238L522.944 217.313L510.224 191.026L510.3 191.102L482.982 179.164H482.928C463.392 151.065 437.344 113.838 408.17 71.9225L408.301 72.0202L388.255 64.7702L388.558 64.6942L372.409 82.6456L307.17 154.201L284.486 166.617L284.551 166.563L223.241 231.053L205.985 249.135L201.415 253.889L200.243 255.104L199.776 255.506Z" fill="#263238"/>
<path d="M144.848 171.23C141.95 171.856 138.989 172.143 136.024 172.088C131.706 172.047 127.558 170.398 124.389 167.464C120.938 164.045 119.169 158.781 115.381 155.84C111.995 153.17 106.764 153.311 103.106 155.504V179.609C104.962 178.155 108.381 175.268 113.601 177.807C115.663 178.817 117.53 179.924 119.516 181.063C125.095 184.417 130.847 184.146 136.719 181.519C138.889 180.542 141.939 178.589 145.684 174.378C147.388 172.511 146.053 171.002 144.848 171.23Z" fill="#FF5100"/>
<path d="M103.106 150.761C103.269 150.761 103.399 162.754 103.399 177.558C103.399 192.361 103.269 204.343 103.106 204.343C102.943 204.343 102.824 192.351 102.824 177.558C102.824 162.765 102.954 150.761 103.106 150.761Z" fill="#263238"/>
<path d="M220.821 304.584L198.214 291.3L116.76 195.379L96.7136 203.16L41.0905 323.86L13.7945 336.678L0 378.528L1.98615 506.325L78.4042 477.759L295.861 394.71L220.821 304.584Z" fill="#EBEBEB"/>
<path d="M41.0905 323.86L51.9438 317.337L62.9708 295.5L71.7945 302.164L98.8083 211.387L117.769 196.421L116.76 195.379L96.7136 203.16L41.0905 323.86Z" fill="#E0E0E0"/>
<path d="M96.7136 203.16L116.76 195.379L158.599 244.653C158.599 244.653 124.118 214.198 123.673 214.198C123.673 214.198 120.276 225.616 119.842 225.464C119.408 225.312 99.2207 205.168 99.2207 205.168L91.0265 215.555L96.7136 203.16Z" fill="white"/>
<path d="M295.861 394.754C295.861 394.754 295.372 394.211 294.461 393.136L290.434 388.35C286.907 384.15 281.751 377.985 275.174 370.127L220.636 304.736L220.702 304.791L198.083 291.528C177.527 267.347 154.301 239.997 129.794 211.148L116.553 195.552L116.868 195.639L96.8113 203.421L96.9633 203.269C75.3544 250.112 56.1006 291.929 41.275 323.947V324.012H41.2099L13.8596 336.83L13.9465 336.732L3.71182 367.555C2.51796 371.115 1.59543 373.861 0.976796 375.728L0.260479 377.822C0.0976798 378.3 0 378.528 0 378.528C0 378.528 0.06512 378.289 0.217066 377.812C0.369012 377.334 0.596931 376.629 0.88997 375.695L3.54902 367.501C5.89333 360.327 9.31212 349.864 13.6426 336.634V336.569H13.6968L40.982 323.708L40.8952 323.806L96.464 203.041V202.943H96.5725L116.619 195.151L116.879 195.053L117.009 195.205L130.196 210.725L198.431 291.148H198.366L220.973 304.443L275.359 369.921L290.532 388.242L294.504 393.06L295.861 394.754Z" fill="#263238"/>
<path d="M89.138 423.916L96.8764 390.76L131.672 338.121L159.174 331.392L196.021 372.222L228.831 380.514L279.103 401.493L69.6998 481.374L73.3574 453.578L89.138 423.916Z" fill="#F5F5F5"/>
<path d="M89.138 423.905C89.138 423.905 88.8016 424.578 88.1287 425.881L85.1115 431.655L73.4659 453.643C72.4457 461.534 71.2301 470.889 69.8517 481.439L69.613 481.254L271.028 404.304L278.973 401.276V401.797L228.7 380.818L195.902 372.504H195.826V372.439L159.001 331.598L159.229 331.663L131.726 338.316L131.857 338.23L96.9958 390.836L91.1784 415.483C90.5055 418.262 90.0063 420.378 89.659 421.811C89.3117 423.243 89.1272 423.981 89.1272 423.981C89.1272 423.981 89.2683 423.254 89.5939 421.811C89.9195 420.367 90.4079 418.251 91.0374 415.451C92.3397 409.85 94.2933 401.559 96.7353 390.792L131.466 338.11V338.045H131.553L159.044 331.294H159.174L159.272 331.392L196.173 372.2L196.108 371.962L228.917 380.254L279.212 401.266L279.863 401.537L279.201 401.797L271.245 404.825L69.7649 481.58L69.4827 481.688V481.395C70.8828 470.846 72.1309 461.49 73.1837 453.611V453.557L84.9269 431.6C86.2836 429.104 87.3147 427.194 88.0093 425.892C88.7039 424.589 89.138 423.905 89.138 423.905Z" fill="#263238"/>
<path d="M445.126 316.121C445.994 316.818 446.793 317.596 447.514 318.444C449.334 320.412 451.037 322.485 452.615 324.652C454.188 326.815 455.637 329.065 456.956 331.392C457.557 332.331 458.055 333.332 458.443 334.377C457.773 333.493 457.164 332.564 456.619 331.598C455.534 329.873 453.96 327.507 452.115 324.989C450.27 322.471 448.49 320.267 447.177 318.705C446.435 317.891 445.75 317.028 445.126 316.121Z" fill="#263238"/>
<path d="M454.85 306.321C455.281 307.607 455.644 308.915 455.936 310.239C456.576 312.67 457.52 316.002 458.714 319.649C459.908 323.295 461.102 326.551 461.97 328.896C462.504 330.149 462.964 331.431 463.348 332.738C463.124 332.444 462.945 332.119 462.817 331.772C462.513 331.142 462.1 330.209 461.601 329.048C460.613 326.725 459.354 323.48 458.15 319.822C456.945 316.165 456.066 312.79 455.523 310.337C455.252 309.099 455.046 308.101 454.937 307.406C454.857 307.05 454.828 306.685 454.85 306.321Z" fill="#263238"/>
<path d="M471.239 312.605C471.315 312.605 470.783 313.517 470.229 315.047C469.526 317.038 469.127 319.123 469.046 321.233C469.046 323.719 468.873 326.009 468.97 327.615C469.078 328.494 469.133 329.378 469.133 330.263C468.814 329.425 468.624 328.543 468.569 327.648C468.414 325.506 468.385 323.357 468.482 321.212C468.558 319.04 469.025 316.901 469.86 314.895C470.157 314.045 470.626 313.265 471.239 312.605Z" fill="#263238"/>
<path d="M163.733 447.457C162.096 445.618 160.298 443.929 158.36 442.41C156.297 441.049 154.118 439.872 151.848 438.894C152.598 438.944 153.334 439.128 154.019 439.437C155.685 440.061 157.258 440.908 158.697 441.954C160.141 442.989 161.438 444.216 162.55 445.601C163.046 446.148 163.446 446.776 163.733 447.457Z" fill="#263238"/>
<path d="M163.743 424.861C163.841 424.861 163.646 426.065 163.613 427.997C163.585 430.51 163.918 433.013 164.601 435.432C165.3 437.847 166.349 440.147 167.716 442.258C168.801 443.876 169.561 444.787 169.485 444.852C169.249 444.692 169.037 444.498 168.855 444.277C168.32 443.718 167.826 443.119 167.379 442.486C164.382 438.263 162.912 433.145 163.212 427.975C163.262 427.203 163.363 426.434 163.516 425.675C163.545 425.392 163.622 425.117 163.743 424.861Z" fill="#263238"/>
<path d="M174.955 430.569C174.79 431.161 174.587 431.741 174.347 432.306C173.897 433.708 173.692 435.176 173.739 436.647C173.788 438.103 174.089 439.539 174.629 440.891C174.911 441.436 175.151 442.002 175.346 442.584C175.291 442.584 174.792 442.096 174.26 441.054C173.593 439.701 173.223 438.22 173.175 436.712C173.12 435.185 173.394 433.664 173.978 432.252C174.163 431.62 174.498 431.043 174.955 430.569Z" fill="#263238"/>
<path d="M63.0684 431.438C64.3196 431.325 65.5806 431.465 66.776 431.852C67.9715 432.238 69.0766 432.861 70.0254 433.684C71.9177 435.348 73.4029 437.423 74.3667 439.751C76.3529 444.169 76.4723 449.747 75.897 454.566C70.6006 453.578 66.65 448.749 64.805 446.166C61.8854 442.085 59.0853 432.935 63.0793 431.438" fill="#FF5100"/>
<path d="M83.9936 459.005C83.055 457.963 82.409 456.691 82.1212 455.319C81.8333 453.946 81.9139 452.522 82.3547 451.191C82.8108 449.869 83.5256 448.653 84.4573 447.611C85.3891 446.569 86.5191 445.724 87.7814 445.124C88.333 444.785 88.9523 444.571 89.5956 444.498C90.2389 444.425 90.8905 444.494 91.5041 444.7C92.0418 444.982 92.4933 445.405 92.8105 445.923C93.1276 446.44 93.2988 447.034 93.3057 447.642C93.314 448.86 92.9995 450.058 92.394 451.115C90.4947 454.794 87.9767 458.017 83.9502 459.016" fill="#FF5100"/>
<path d="M87.0325 474.362C86.8816 474.065 86.7546 473.757 86.6527 473.44L85.7193 470.889C84.5887 468.097 83.9215 465.138 83.744 462.131C83.6069 459.097 84.2813 456.081 85.6976 453.394C86.1465 452.613 86.6817 451.885 87.293 451.223C87.4992 450.984 87.6946 450.822 87.814 450.702C87.9333 450.583 88.0093 450.529 88.0202 450.539C87.2189 451.476 86.5136 452.49 85.9146 453.568C84.5923 456.237 83.9651 459.198 84.0913 462.174C84.2776 465.144 84.903 468.07 85.9472 470.857C86.3162 471.942 86.5984 472.832 86.7829 473.451C86.8925 473.747 86.976 474.052 87.0325 474.362Z" fill="#263238"/>
<path d="M65.8686 438.167C65.963 438.277 66.0501 438.393 66.1291 438.514C66.3027 438.785 66.5415 439.122 66.8237 439.545C67.4206 440.446 68.2672 441.716 69.3091 443.387C71.3821 446.643 74.1822 451.18 77.156 456.27C80.1298 461.36 82.7346 466.038 84.558 469.424C85.4805 471.117 86.2077 472.506 86.7286 473.462L87.2821 474.547C87.3559 474.673 87.4142 474.808 87.4558 474.948C87.3666 474.838 87.2901 474.718 87.2279 474.59L86.6092 473.505C86.0557 472.528 85.3068 471.172 84.3734 469.522C82.4958 466.146 79.8693 461.512 76.8955 456.422C73.9217 451.332 71.0673 446.849 69.0486 443.593L66.6609 439.697C66.4004 439.263 66.1942 438.905 66.0205 438.612C65.9493 438.471 65.8982 438.321 65.8686 438.167Z" fill="#263238"/>
<path d="M79.446 465.105C77.5348 462.834 75.1082 461.053 72.3687 459.911C69.6292 458.768 66.6563 458.298 63.6979 458.538C62.2002 458.669 60.4419 459.2 60.0187 460.644C59.5954 462.087 60.7133 463.509 61.8963 464.442C64.3998 466.341 67.4089 467.457 70.545 467.65C73.6812 467.844 76.8045 467.105 79.522 465.528" fill="#FF5100"/>
<path d="M66.6392 462.131C66.942 462.062 67.2512 462.026 67.5617 462.022C67.9219 461.98 68.2844 461.962 68.647 461.968C69.1315 461.942 69.6169 461.942 70.1014 461.968C70.6942 462 71.2848 462.065 71.8704 462.163C72.5437 462.261 73.2105 462.399 73.8675 462.576C75.3752 462.975 76.8319 463.547 78.2088 464.28C79.5771 465.032 80.8521 465.943 82.0074 466.993C82.9374 467.86 83.784 468.812 84.5362 469.837C84.8727 470.271 85.1006 470.705 85.3394 471.063C85.5358 471.374 85.7134 471.697 85.8712 472.029C86.0284 472.3 86.1558 472.588 86.251 472.886C86.1859 472.886 85.6216 471.703 84.33 469.989C83.9923 469.521 83.63 469.072 83.2447 468.643C82.7981 468.146 82.3234 467.675 81.8229 467.232C80.6776 466.215 79.4216 465.33 78.0785 464.594C76.7271 463.869 75.3005 463.294 73.824 462.88C73.1403 462.706 72.4891 462.543 71.8596 462.445C71.2891 462.337 70.713 462.261 70.1339 462.218C67.9741 462.044 66.6392 462.207 66.6392 462.131Z" fill="#263238"/>
<path d="M513.914 154.494C507.755 155.829 501.461 156.441 495.159 156.318C486.216 155.949 477.078 153.062 470.414 146.495C463.066 139.224 459.289 128.045 451.247 121.75C444.04 116.085 432.905 116.323 425.145 121.034V172.261C429.074 169.19 436.356 162.971 447.448 168.441C451.844 170.611 455.805 172.945 460.038 175.485C471.901 182.615 484.132 181.997 496.635 176.451C501.302 174.378 507.728 170.232 515.694 161.256C519.319 157.229 516.475 154.006 513.914 154.494Z" fill="#FF5100"/>
<path d="M425.818 345.371V120.415C425.818 117.398 425.883 114.37 425.818 111.342V110.962C425.797 110.797 425.716 110.645 425.592 110.535C425.467 110.425 425.306 110.364 425.139 110.364C424.973 110.364 424.812 110.425 424.687 110.535C424.563 110.645 424.482 110.797 424.461 110.962V335.212C424.461 338.414 424.461 341.627 424.461 344.828V345.371C424.482 345.536 424.563 345.688 424.687 345.798C424.812 345.908 424.973 345.969 425.139 345.969C425.306 345.969 425.467 345.908 425.592 345.798C425.716 345.688 425.797 345.536 425.818 345.371Z" fill="#263238"/>
<path d="M220.441 118.451L219.215 110.756C223.102 104.434 224.484 96.886 223.089 89.5968C221.694 82.3075 217.622 75.8037 211.675 71.3639C205.728 66.9241 198.336 64.8693 190.95 65.6036C183.565 66.3379 176.722 69.8081 171.765 75.332C166.809 80.856 164.098 88.0341 164.166 95.4553C164.233 102.877 167.074 110.004 172.13 115.437C177.186 120.87 184.092 124.215 191.489 124.815C198.886 125.415 206.24 123.226 212.106 118.678L220.441 118.451Z" fill="white"/>
<path d="M220.441 118.451H219.92L218.336 118.527L212.095 118.776C212.08 118.778 212.064 118.776 212.05 118.771C212.036 118.766 212.022 118.759 212.011 118.748C212 118.738 211.991 118.726 211.985 118.712C211.979 118.698 211.975 118.683 211.976 118.668C211.969 118.643 211.969 118.617 211.976 118.592L212.138 118.744C208.328 121.755 203.831 123.776 199.049 124.626C195.915 125.173 192.715 125.228 189.563 124.789C185.979 124.265 182.518 123.096 179.351 121.338C175.861 119.363 172.793 116.723 170.321 113.567C167.623 110.156 165.714 106.19 164.731 101.954C163.695 97.4431 163.695 92.7564 164.731 88.2459C165.847 83.5153 168.122 79.1366 171.352 75.5041C172.981 73.6428 174.828 71.9847 176.854 70.5659C177.885 69.9147 178.916 69.2526 179.98 68.6882L181.619 67.9177L182.433 67.5378L183.279 67.2339C187.661 65.6062 192.359 65.0084 197.009 65.4865C201.376 65.9537 205.582 67.3966 209.316 69.7085C212.766 71.8181 215.762 74.5924 218.129 77.8701C220.244 80.8207 221.807 84.1301 222.742 87.6381C222.916 88.4738 223.089 89.2986 223.252 90.1126C223.415 90.9266 223.447 91.7298 223.545 92.5221C223.696 94.0514 223.718 95.5908 223.61 97.1239C223.297 101.947 221.807 106.62 219.269 110.734V110.658C219.638 113.143 219.92 115.075 220.115 116.41C220.202 117.04 220.278 117.495 220.322 117.886C220.365 118.277 220.387 118.375 220.387 118.375C220.387 118.375 220.387 118.19 220.278 117.854C220.17 117.517 220.126 116.996 220.018 116.356C219.79 115.043 219.464 113.1 219.041 110.69C219.036 110.665 219.036 110.64 219.041 110.614C221.52 106.518 222.969 101.881 223.263 97.1022C223.359 95.5863 223.327 94.065 223.165 92.5546C223.068 91.784 223.024 90.9809 222.861 90.1778C222.699 89.3746 222.525 88.5715 222.34 87.7466C220.375 80.3995 215.641 74.0985 209.132 70.1643C205.463 67.8997 201.33 66.4935 197.041 66.0509C192.475 65.5811 187.862 66.1717 183.562 67.7766L182.737 68.0696L181.934 68.4495L180.327 69.2092C179.242 69.7627 178.276 70.4139 177.256 71.0543C175.262 72.4475 173.44 74.0724 171.829 75.8948C168.657 79.4593 166.42 83.7554 165.317 88.3978C164.282 92.8179 164.259 97.4151 165.252 101.845C166.194 106.009 168.047 109.912 170.679 113.274C173.101 116.386 176.11 118.993 179.535 120.947C182.651 122.69 186.055 123.86 189.585 124.398C192.694 124.848 195.854 124.812 198.952 124.29C203.69 123.472 208.159 121.516 211.976 118.592C211.998 118.571 212.027 118.56 212.057 118.56C212.087 118.56 212.116 118.571 212.138 118.592C212.155 118.611 212.164 118.636 212.164 118.662C212.164 118.688 212.155 118.713 212.138 118.733L212.051 118.548L218.216 118.429H219.833L220.441 118.451Z" fill="#263238"/>
<path d="M210.217 66.9843H177.657C177.549 67.2665 175.378 97.5255 193.937 98.1007C212.518 97.5146 210.348 67.2556 210.217 66.9843Z" fill="#FF5100"/>
<path d="M212.29 64.0105H175.595C174.78 64.0105 174.119 64.6713 174.119 65.4865V66.3548C174.119 67.17 174.78 67.8309 175.595 67.8309H212.29C213.105 67.8309 213.766 67.17 213.766 66.3548V65.4865C213.766 64.6713 213.105 64.0105 212.29 64.0105Z" fill="#FF5100"/>
<path d="M183.768 92.8911C177.896 91.3499 173.935 87.0737 172.328 80.5075C171.602 77.4454 171.382 74.2851 171.677 71.1519L171.797 70.2186H180.143V72.3892H173.729C173.595 74.9778 173.828 77.5722 174.423 80.0951C175.856 85.8907 179.188 89.5157 184.311 90.8615L183.768 92.8911Z" fill="#FF5100"/>
<path d="M204.074 92.8911L203.532 90.829C208.687 89.4832 212.019 85.8365 213.441 79.9757C214.022 77.4876 214.252 74.9303 214.124 72.3784H207.71V70.2403H216.056L216.176 71.1737C216.471 74.3074 216.247 77.4683 215.514 80.5292C213.918 87.0737 209.957 91.3499 204.074 92.8911Z" fill="#FF5100"/>
<path d="M197.193 99.8806C196.606 97.7537 196.242 95.5712 196.108 93.3686H191.767C191.633 95.5712 191.269 97.7537 190.681 99.8806C188.261 109.649 179.589 110.202 179.589 110.202V112.97H208.242V110.202C208.242 110.202 199.614 109.67 197.193 99.8806Z" fill="#FF5100"/>
<path d="M211.303 67.7006C211.303 67.8526 203.597 67.9828 194.111 67.9828C184.625 67.9828 176.919 67.8526 176.919 67.7006C176.919 67.5487 184.614 67.4185 194.111 67.4185C203.608 67.4185 211.303 67.5487 211.303 67.7006Z" fill="#263238"/>
<path d="M206.961 88.6909C206.85 89.1222 206.694 89.5406 206.495 89.939C205.96 91.0349 205.301 92.0655 204.53 93.0105C203.36 94.4127 201.926 95.5707 200.308 96.4184C198.31 97.4368 196.093 97.9475 193.851 97.9053C191.607 97.9166 189.396 97.3603 187.425 96.2882C185.844 95.3823 184.457 94.1725 183.345 92.7283C182.59 91.7732 181.929 90.7484 181.369 89.6677C181.14 89.2871 180.962 88.8785 180.837 88.4521C180.935 88.387 181.727 90.1343 183.648 92.4786C184.775 93.8327 186.14 94.9693 187.675 95.8323C189.574 96.8518 191.695 97.3885 193.851 97.3952C196.004 97.4328 198.136 96.9566 200.069 96.006C201.644 95.1907 203.05 94.0861 204.215 92.75C205.254 91.4844 206.173 90.1256 206.961 88.6909Z" fill="#263238"/>
<path opacity="0.3" d="M194.816 75.6669L195.902 77.957C195.971 78.0966 196.074 78.217 196.201 78.3078C196.327 78.3986 196.474 78.457 196.629 78.4779L199.158 78.8469C199.334 78.8723 199.5 78.9465 199.636 79.0612C199.773 79.1758 199.874 79.3263 199.93 79.4957C199.985 79.665 199.992 79.8465 199.949 80.0195C199.907 80.1926 199.817 80.3503 199.69 80.4749L197.899 82.1789C197.787 82.2863 197.703 82.42 197.656 82.5678C197.609 82.7156 197.599 82.8729 197.627 83.0254L198.062 85.5434C198.09 85.7202 198.069 85.9013 198 86.0666C197.931 86.232 197.818 86.375 197.673 86.4796C197.527 86.5843 197.356 86.6466 197.177 86.6595C196.999 86.6724 196.82 86.6355 196.662 86.5528L194.404 85.3589C194.266 85.2893 194.114 85.253 193.959 85.253C193.804 85.253 193.652 85.2893 193.514 85.3589L191.257 86.5528C191.098 86.6355 190.919 86.6724 190.741 86.6595C190.562 86.6466 190.391 86.5843 190.245 86.4796C190.1 86.375 189.987 86.232 189.918 86.0666C189.85 85.9013 189.828 85.7202 189.857 85.5434L190.291 83.0254C190.319 82.8729 190.31 82.7156 190.262 82.5678C190.215 82.42 190.131 82.2863 190.019 82.1789L188.185 80.3881C188.058 80.2635 187.968 80.1058 187.925 79.9327C187.883 79.7597 187.89 79.5782 187.945 79.4089C188.001 79.2395 188.102 79.089 188.238 78.9744C188.375 78.8597 188.541 78.7855 188.717 78.7601L191.246 78.3911C191.4 78.3702 191.547 78.3118 191.674 78.221C191.801 78.1302 191.903 78.0097 191.973 77.8701L193.058 75.5801C193.14 75.4107 193.269 75.2691 193.431 75.173C193.592 75.0769 193.778 75.0306 193.966 75.0399C194.154 75.0492 194.335 75.1136 194.486 75.2251C194.637 75.3367 194.752 75.4903 194.816 75.6669Z" fill="black"/>
<path d="M207.732 110.321C207.732 110.473 201.383 110.604 193.558 110.604C185.732 110.604 179.383 110.473 179.383 110.321C179.383 110.17 185.721 110.039 193.558 110.039C201.394 110.039 207.732 110.159 207.732 110.321Z" fill="#263238"/>
<path d="M343.593 210.519C343.941 210.519 347.935 210.117 348.759 208.989C348.984 208.594 349.109 208.151 349.124 207.697C349.14 207.243 349.044 206.793 348.846 206.384C349.64 205.742 350.194 204.851 350.42 203.855C350.442 202.824 350.134 201.812 349.541 200.968L349.932 199.677C350.132 199.233 350.205 198.743 350.144 198.26C350.083 197.777 349.889 197.321 349.584 196.942C348.76 196.364 348.134 195.545 347.794 194.597C347.403 193.186 342.996 192.6 340.858 192.177C338.72 191.754 335.855 191.146 333.663 193.805C330.721 197.376 325.751 203.009 325.751 203.009L329.94 214.448C329.94 214.448 331.818 215.533 335.996 214.524C338.773 213.717 341.358 212.354 343.593 210.519Z" fill="#FFBF9D"/>
<path d="M341.14 208.283L370.184 366.546L371.378 366.144L344.32 205.613L341.14 208.283Z" fill="#455A64"/>
<path d="M339.1 202.129C339.1 202.129 336.994 196.052 334.574 193.675C332.154 191.298 329.983 190.245 332.61 188.476C335.236 186.707 341.846 184.135 342.584 186.132C343.322 188.129 342.399 187.217 342.117 188.834C341.835 190.451 344.874 197.463 345.753 200.339C346.632 203.215 349.964 212.277 348.759 213.015C347.902 213.525 343.637 213.992 341.303 214.22C341.104 214.239 340.902 214.218 340.711 214.157C340.52 214.097 340.343 213.998 340.19 213.867C340.038 213.737 339.914 213.576 339.826 213.396C339.737 213.216 339.686 213.02 339.675 212.82L339.1 202.129Z" fill="#263238"/>
<path d="M353.795 203.204C353.382 200.847 352.382 198.633 350.887 196.764C349.392 194.896 347.451 193.434 345.243 192.513C339.816 190.343 340.554 191.2 340.554 191.2L339.947 193.49C346.925 193.186 349.715 199.004 350.561 200.241C351.646 201.793 352.406 205.516 350.974 206.362C349.541 207.209 346.35 205.537 346.35 205.537L344.538 206.883C344.538 206.883 349.552 209.738 351.82 209.727C354.088 209.716 354.566 207.35 353.795 203.204Z" fill="#263238"/>
<path d="M358.517 281.521C358.533 282.023 358.401 282.519 358.136 282.945C357.872 283.372 357.486 283.711 357.029 283.919C356.572 284.126 356.063 284.194 355.568 284.113C355.072 284.032 354.612 283.805 354.245 283.463C353.878 283.12 353.621 282.676 353.506 282.187C353.391 281.698 353.424 281.186 353.6 280.716C353.776 280.246 354.087 279.838 354.495 279.545C354.903 279.252 355.388 279.086 355.89 279.068C356.563 279.048 357.217 279.294 357.709 279.754C358.201 280.213 358.491 280.849 358.517 281.521Z" fill="#455A64"/>
<path d="M367.286 332.011C367.286 332.435 367.16 332.85 366.926 333.205C366.692 333.559 366.36 333.837 365.969 334.004C365.579 334.171 365.148 334.22 364.73 334.144C364.312 334.069 363.926 333.873 363.618 333.58C363.311 333.287 363.096 332.91 363 332.497C362.905 332.083 362.933 331.651 363.08 331.252C363.228 330.854 363.49 330.508 363.832 330.257C364.174 330.006 364.583 329.861 365.007 329.84C365.301 329.825 365.595 329.871 365.871 329.973C366.147 330.076 366.399 330.233 366.612 330.436C366.826 330.639 366.995 330.883 367.111 331.154C367.227 331.425 367.286 331.716 367.286 332.011Z" fill="#455A64"/>
<path d="M348.369 201.196C346.949 201.705 345.473 202.043 343.973 202.205C343.279 202.281 342.584 202.314 341.889 202.455C341.195 202.564 340.538 202.843 339.979 203.269C339.7 203.481 339.471 203.751 339.306 204.06C339.141 204.369 339.045 204.71 339.024 205.06C339.014 205.412 339.112 205.758 339.307 206.052C339.501 206.345 339.781 206.571 340.109 206.699C339.784 206.869 339.529 207.148 339.386 207.487C339.243 207.825 339.223 208.203 339.328 208.555C339.446 208.903 339.641 209.221 339.898 209.484C340.156 209.747 340.469 209.949 340.815 210.074C341.51 210.326 342.246 210.447 342.986 210.432C344.077 210.47 345.169 210.387 346.242 210.183C347.183 210.042 348.053 209.596 348.716 208.913C349.03 208.562 349.21 208.112 349.226 207.642C349.242 207.172 349.092 206.712 348.803 206.34C349.392 205.863 349.779 205.181 349.888 204.43" fill="#FFBF9D"/>
<path d="M339.426 201.912C339.035 201.742 338.706 201.456 338.483 201.094C338.26 200.731 338.153 200.308 338.178 199.883C338.297 198.906 339.263 198.266 340.185 197.907C342.424 197.185 344.77 196.851 347.121 196.92L348.26 197.604C348.511 198.063 348.694 198.557 348.803 199.069C348.856 199.324 348.851 199.588 348.789 199.842C348.727 200.095 348.609 200.332 348.445 200.534C348.073 200.871 347.614 201.096 347.121 201.185C345.672 201.681 344.172 202.012 342.649 202.173C341.568 202.311 340.47 202.223 339.426 201.912Z" fill="#FFBF9D"/>
<path d="M348.846 206.384C348.059 206.272 347.263 206.24 346.469 206.286C345.004 206.286 342.975 206.286 340.739 206.384H339.903H339.654C339.546 206.411 339.449 206.468 339.371 206.547C339.249 206.675 339.159 206.832 339.111 207.003C339.017 207.545 339.046 208.101 339.198 208.631C339.318 209.13 339.62 209.567 340.044 209.857C340.393 210.097 340.783 210.27 341.195 210.367C341.768 210.518 342.361 210.583 342.953 210.562C343.376 210.562 343.604 210.508 343.593 210.476C343.582 210.443 342.671 210.476 341.303 210.031C340.917 209.952 340.56 209.771 340.269 209.505C339.979 209.239 339.766 208.899 339.654 208.522C339.525 208.074 339.502 207.602 339.588 207.144C339.601 207.053 339.643 206.969 339.708 206.905C339.784 206.851 339.708 206.905 339.925 206.905H340.761C342.996 206.84 345.015 206.742 346.48 206.655C347.276 206.649 348.07 206.559 348.846 206.384Z" fill="#FF9A6C"/>
<path d="M349.541 200.968C348.874 200.95 348.207 201.012 347.555 201.153C346.339 201.326 344.646 201.608 342.779 201.934H342.627C341.666 201.949 340.726 202.218 339.903 202.716C339.557 202.934 339.275 203.239 339.085 203.601C338.894 203.963 338.802 204.369 338.818 204.778C338.854 205.31 339.039 205.821 339.35 206.254C339.567 206.547 339.73 206.677 339.751 206.655C339.773 206.634 339.675 206.46 339.523 206.156C339.299 205.731 339.18 205.258 339.176 204.778C339.181 204.437 339.273 204.103 339.444 203.809C339.615 203.514 339.859 203.268 340.153 203.095C340.913 202.67 341.767 202.443 342.638 202.433H342.877C344.733 202.097 346.415 201.76 347.62 201.5C348.28 201.402 348.925 201.224 349.541 200.968Z" fill="#FF9A6C"/>
<path d="M349.584 196.942C348.623 197.216 347.689 197.579 346.795 198.027H346.871C345.276 198.027 343.116 198.027 340.75 198.027H339.23H339.111L339.046 198.103C338.677 198.516 338.383 198.989 338.178 199.503C337.974 200 337.947 200.552 338.102 201.066C338.173 201.306 338.297 201.528 338.464 201.716C338.631 201.903 338.837 202.052 339.067 202.151C339.414 202.293 339.78 202.381 340.153 202.412C340.692 202.457 341.236 202.435 341.77 202.346C342.139 202.281 342.345 202.216 342.334 202.184C342.323 202.151 341.499 202.26 340.164 202.086C339.545 201.999 338.655 201.782 338.438 201.001C338.372 200.547 338.419 200.084 338.574 199.652C338.73 199.221 338.988 198.834 339.328 198.526L339.154 198.602H340.685C343.051 198.602 345.2 198.537 346.806 198.472H346.969C347.886 198.043 348.761 197.531 349.584 196.942Z" fill="#FF9A6C"/>
<path d="M329.05 202.444C329.05 202.444 334.411 194.424 334.672 194.293C334.932 194.163 343.517 193.056 345.525 193.924C347.533 194.793 349.867 196.03 349.867 196.03C349.867 196.03 350.16 198.201 346.741 198.396C343.322 198.591 339.773 198.472 339.773 198.472L337.906 201.207C337.906 201.207 338.666 208.522 332.187 210.584" fill="#FFBF9D"/>
<path d="M332.154 210.584C332.43 210.513 332.702 210.426 332.968 210.324C333.293 210.212 333.606 210.067 333.901 209.89C334.299 209.681 334.676 209.438 335.03 209.162C335.987 208.329 336.731 207.28 337.201 206.102C337.823 204.56 338.09 202.898 337.982 201.239V201.37L339.871 198.646L339.697 198.743C341.347 198.743 343.094 198.743 344.928 198.743C345.872 198.746 346.815 198.681 347.75 198.548C348.252 198.449 348.726 198.241 349.139 197.94C349.579 197.617 349.882 197.141 349.986 196.605C350.013 196.422 350.013 196.235 349.986 196.052V195.932H349.867L347.49 194.782L346.328 194.217C345.949 194.015 345.553 193.845 345.145 193.707C344.321 193.535 343.48 193.462 342.638 193.49C341.824 193.49 341.043 193.49 340.272 193.566C338.731 193.675 337.288 193.827 335.931 194L334.922 194.152H334.672H334.52L334.379 194.283C334.259 194.434 334.173 194.543 334.075 194.684L333.044 196.182C331.742 198.092 330.721 199.666 330.016 200.751L329.224 202.01C329.125 202.153 329.042 202.306 328.974 202.466C329.096 202.343 329.205 202.209 329.3 202.064L330.168 200.849L333.304 196.366L334.39 194.89L334.672 194.532C334.672 194.532 334.672 194.532 334.672 194.445C334.726 194.554 334.726 194.521 334.726 194.521H334.791H335.019L336.007 194.38C337.353 194.217 338.807 194.087 340.348 194C341.119 194 341.9 193.924 342.692 193.924C343.49 193.908 344.288 193.981 345.069 194.141C345.443 194.282 345.805 194.449 346.155 194.641L347.305 195.205L349.66 196.345L349.541 196.171C349.561 196.304 349.561 196.439 349.541 196.573C349.422 196.995 349.178 197.372 348.841 197.653C348.504 197.933 348.089 198.106 347.652 198.146C346.747 198.278 345.833 198.343 344.917 198.342C343.105 198.342 341.358 198.342 339.719 198.342H339.599L339.534 198.428C338.894 199.384 338.264 200.295 337.678 201.174V201.229V201.305C337.793 202.903 337.556 204.507 336.984 206.004C336.539 207.153 335.833 208.182 334.922 209.01C334.064 209.642 333.135 210.171 332.154 210.584Z" fill="#FF9A6C"/>
<path d="M326.413 200.794L294.699 205.537L285.941 175.333L275.337 220.526L281.849 224.954C283.863 226.314 286.152 227.214 288.553 227.589C290.954 227.964 293.408 227.806 295.741 227.125L331.807 217.357L326.413 200.794Z" fill="#FF5100"/>
<path d="M274.252 158.043L277.291 158.184L279.005 158.89C284.352 168.426 287.407 179.075 287.927 189.995L288.437 201.695L288.263 275.389L263.301 271.938L260.142 250.535L274.252 158.043Z" fill="#FF5100"/>
<path opacity="0.3" d="M287.514 270.136C287.514 270.136 287.514 245.575 287.699 236.252C287.883 226.929 285.029 193.186 285.029 193.186C285.029 193.186 274.534 261.92 274.903 262.029C275.272 262.137 287.514 270.136 287.514 270.136Z" fill="black"/>
<path d="M284.313 174.28C284.391 174.447 284.453 174.622 284.497 174.801C284.606 175.213 284.747 175.713 284.91 176.32C285.235 177.666 285.637 179.576 285.995 182.051C286.733 186.913 287.232 193.696 287.59 201.185C287.949 208.674 288.101 215.446 288.296 220.352C288.404 222.74 288.491 224.693 288.556 226.159C288.556 226.788 288.611 227.309 288.632 227.732C288.652 227.916 288.652 228.102 288.632 228.286C288.57 228.111 288.533 227.928 288.524 227.743C288.524 227.32 288.415 226.799 288.35 226.169C288.209 224.802 288.057 222.827 287.905 220.374C287.612 215.468 287.373 208.685 287.037 201.207C286.7 193.729 286.245 186.967 285.615 182.105C285.311 179.674 284.975 177.764 284.725 176.375L284.4 174.823C284.341 174.648 284.312 174.464 284.313 174.28Z" fill="#263238"/>
<path d="M239.695 400.18L237.958 413.758L238.175 415.505C238.175 415.505 260.099 419.792 260.967 423.569L221.005 430.081L219.464 420.91L221.635 398.541L239.695 400.18Z" fill="#263238"/>
<path d="M225.542 415.831C225.178 416.01 224.892 416.317 224.74 416.693C224.588 417.07 224.58 417.489 224.717 417.871C224.88 418.245 225.181 418.54 225.558 418.696C225.934 418.852 226.357 418.856 226.736 418.707C227.123 418.516 227.425 418.188 227.584 417.787C227.742 417.386 227.746 416.94 227.593 416.536C227.383 416.171 227.04 415.901 226.635 415.783C226.23 415.666 225.796 415.71 225.423 415.907" fill="#E0E0E0"/>
<path d="M220.995 430.135L220.582 426.879L259.057 421.887C259.057 421.887 260.967 422.375 260.967 423.656L220.995 430.135Z" fill="#455A64"/>
<path d="M238.794 415.234C238.794 415.429 237.861 415.679 237.003 416.46C236.146 417.242 235.766 418.153 235.571 418.099C235.375 418.045 235.484 416.883 236.547 415.928C237.611 414.973 238.805 415.049 238.794 415.234Z" fill="white"/>
<path d="M243.266 416.286C243.342 416.471 242.549 416.938 242.028 417.871C241.507 418.804 241.442 419.705 241.247 419.727C241.051 419.749 240.748 418.642 241.431 417.556C242.115 416.471 243.233 416.102 243.266 416.286Z" fill="white"/>
<path d="M246.467 420.91C246.294 420.986 245.859 420.053 246.196 418.902C246.532 417.752 247.357 417.176 247.466 417.328C247.574 417.48 247.108 418.142 246.858 419.087C246.608 420.031 246.652 420.867 246.467 420.91Z" fill="white"/>
<path d="M342.931 363.778L343.04 377.464L343.496 379.168C343.496 379.168 365.799 380.46 367.156 384.085L328.442 395.937L325.675 387.069L324.785 364.614L342.931 363.778Z" fill="#263238"/>
<path d="M331.014 381.154C330.67 381.383 330.423 381.733 330.323 382.135C330.222 382.536 330.275 382.961 330.472 383.325C330.686 383.672 331.025 383.922 331.419 384.026C331.813 384.129 332.232 384.076 332.588 383.879C332.946 383.637 333.201 383.271 333.305 382.853C333.41 382.434 333.355 381.991 333.152 381.61C332.89 381.273 332.507 381.05 332.084 380.989C331.661 380.929 331.231 381.034 330.884 381.285" fill="#E0E0E0"/>
<path d="M328.442 395.937L327.596 392.767L365.029 382.598C365.029 382.598 366.982 382.815 367.199 384.085L328.442 395.937Z" fill="#455A64"/>
<path d="M344.071 378.777C344.071 378.973 343.203 379.342 342.454 380.232C341.705 381.122 341.455 382.077 341.26 382.055C341.064 382.033 341.01 380.85 341.933 379.787C342.855 378.723 344.049 378.593 344.071 378.777Z" fill="white"/>
<path d="M348.64 379.212C348.738 379.385 348.021 379.96 347.62 380.948C347.218 381.936 347.294 382.847 347.11 382.902C346.925 382.956 346.469 381.914 346.99 380.731C347.511 379.548 348.586 379.038 348.64 379.212Z" fill="white"/>
<path d="M352.395 383.368C352.233 383.455 351.679 382.598 351.853 381.415C352.026 380.232 352.775 379.548 352.938 379.678C353.101 379.809 352.688 380.536 352.558 381.512C352.428 382.489 352.612 383.292 352.395 383.368Z" fill="white"/>
<path d="M255.367 158.054L253.5 117.246C252.697 107.109 257.939 98.1984 268.098 97.71H269.031C273.6 97.7442 277.988 99.4975 281.323 102.621C284.657 105.744 286.693 110.008 287.026 114.565C287.666 123.356 288.263 133.07 288.166 137.791C287.97 147.559 278.202 148.981 278.202 148.981C278.202 148.981 278.343 154.918 278.441 157.772L280.959 164.382L272.873 162.699L255.367 158.054Z" fill="#FFBF9D"/>
<path d="M278.202 148.959C273.712 148.912 269.329 147.583 265.569 145.128C265.569 145.128 268.575 152.486 278.311 151.64L278.202 148.959Z" fill="#FF9A6C"/>
<path d="M283.824 123.031C283.824 123.394 283.682 123.742 283.429 124.002C283.175 124.261 282.83 124.411 282.468 124.42C282.291 124.433 282.114 124.411 281.946 124.354C281.778 124.298 281.623 124.208 281.491 124.091C281.358 123.973 281.25 123.831 281.174 123.671C281.098 123.511 281.054 123.338 281.046 123.161C281.043 122.796 281.184 122.445 281.437 122.183C281.691 121.921 282.038 121.769 282.403 121.761C282.58 121.749 282.757 121.773 282.925 121.831C283.093 121.888 283.248 121.979 283.38 122.097C283.512 122.215 283.62 122.359 283.696 122.519C283.772 122.679 283.816 122.853 283.824 123.031Z" fill="#263238"/>
<path d="M284.92 118.841C284.747 119.015 283.694 118.223 282.196 118.223C280.699 118.223 279.591 118.95 279.429 118.765C279.266 118.581 279.526 118.364 280.015 118.016C280.653 117.578 281.411 117.347 282.185 117.354C282.967 117.352 283.729 117.603 284.356 118.071C284.855 118.429 285.007 118.754 284.92 118.841Z" fill="#263238"/>
<path d="M270.138 123.248C270.138 123.611 269.996 123.959 269.743 124.219C269.489 124.478 269.144 124.628 268.782 124.637C268.604 124.65 268.426 124.628 268.258 124.572C268.09 124.515 267.934 124.426 267.801 124.309C267.667 124.191 267.559 124.049 267.481 123.889C267.403 123.729 267.359 123.555 267.349 123.378C267.349 123.014 267.49 122.664 267.744 122.403C267.997 122.142 268.342 121.989 268.706 121.978C268.884 121.965 269.062 121.987 269.232 122.044C269.401 122.101 269.557 122.192 269.69 122.31C269.824 122.429 269.932 122.573 270.009 122.734C270.086 122.895 270.13 123.069 270.138 123.248Z" fill="#263238"/>
<path d="M270.214 119.08C270.041 119.265 268.999 118.472 267.501 118.461C266.003 118.451 264.896 119.199 264.733 119.015C264.571 118.83 264.831 118.603 265.309 118.255C265.95 117.823 266.706 117.593 267.479 117.593C268.26 117.598 269.019 117.849 269.65 118.309C270.149 118.657 270.301 118.993 270.214 119.08Z" fill="#263238"/>
<path d="M275.511 130.628C276.301 130.392 277.118 130.254 277.942 130.216C278.333 130.216 278.691 130.107 278.756 129.836C278.784 129.458 278.701 129.081 278.517 128.75L277.432 125.82C275.891 121.663 274.783 118.223 274.957 118.223C276.182 120.612 277.216 123.094 278.05 125.646L279.136 128.588C279.373 129.053 279.442 129.586 279.331 130.096C279.273 130.231 279.185 130.35 279.074 130.446C278.963 130.542 278.832 130.611 278.691 130.65C278.478 130.708 278.259 130.737 278.039 130.737C277.195 130.811 276.345 130.775 275.511 130.628Z" fill="#263238"/>
<path d="M270.746 114.381C270.529 114.76 269.086 114.381 267.316 114.305C265.547 114.229 264.06 114.511 263.887 114.12C263.811 113.925 264.115 113.588 264.733 113.284C265.56 112.915 266.461 112.741 267.366 112.775C268.271 112.808 269.157 113.05 269.954 113.48C270.562 113.838 270.833 114.207 270.746 114.381Z" fill="#263238"/>
<path d="M285.018 114.424C284.714 114.771 283.488 114.424 282.023 114.424C280.557 114.424 279.309 114.674 279.027 114.315C278.897 114.142 279.092 113.805 279.635 113.469C280.382 113.07 281.22 112.872 282.066 112.894C282.912 112.895 283.742 113.128 284.465 113.567C284.986 113.914 285.159 114.261 285.018 114.424Z" fill="#263238"/>
<path d="M254.238 124.507C254.075 124.442 247.553 122.477 247.726 129.152C247.9 135.827 254.553 134.286 254.553 134.09C254.553 133.895 254.238 124.507 254.238 124.507Z" fill="#FFBF9D"/>
<path d="M252.447 131.583C252.447 131.583 252.328 131.659 252.133 131.757C251.996 131.816 251.848 131.847 251.699 131.847C251.549 131.847 251.401 131.816 251.264 131.757C250.83 131.491 250.473 131.115 250.229 130.667C249.985 130.22 249.863 129.716 249.875 129.206C249.847 128.635 249.943 128.065 250.157 127.535C250.213 127.323 250.321 127.129 250.471 126.97C250.62 126.811 250.807 126.692 251.015 126.623C251.148 126.581 251.291 126.589 251.419 126.644C251.547 126.7 251.65 126.801 251.709 126.927C251.796 127.112 251.764 127.242 251.796 127.253C251.829 127.263 251.937 127.133 251.872 126.862C251.834 126.696 251.738 126.55 251.601 126.449C251.509 126.383 251.406 126.336 251.296 126.31C251.186 126.284 251.072 126.279 250.961 126.298C250.684 126.359 250.429 126.492 250.22 126.682C250.01 126.872 249.854 127.114 249.767 127.383C249.499 127.967 249.376 128.608 249.409 129.25C249.39 129.845 249.547 130.433 249.862 130.939C250.177 131.445 250.635 131.847 251.178 132.093C251.362 132.145 251.556 132.154 251.745 132.118C251.933 132.082 252.11 132.003 252.263 131.887C252.437 131.735 252.469 131.594 252.447 131.583Z" fill="#FF9A6C"/>
<path d="M270.833 131.713C271.061 131.713 271.126 133.222 272.483 134.264C273.839 135.306 275.456 135.067 275.478 135.284C275.5 135.501 275.12 135.599 274.393 135.642C273.496 135.687 272.612 135.414 271.897 134.872C271.55 134.613 271.258 134.288 271.038 133.915C270.818 133.543 270.674 133.13 270.616 132.701C270.572 132.104 270.735 131.713 270.833 131.713Z" fill="#263238"/>
<path d="M300.191 105.318C300.066 104.927 299.794 104.6 299.431 104.406C298.64 104.074 297.776 103.955 296.924 104.059C294.797 104.064 292.696 103.586 290.781 102.659C291.436 102.325 292.033 101.889 292.55 101.368C293.094 100.831 293.483 100.157 293.674 99.4175C293.865 98.6778 293.852 97.9001 293.636 97.1673C293.6 97.0288 293.532 96.9007 293.438 96.7933C293.344 96.6858 293.226 96.602 293.093 96.5487C292.659 96.4184 292.29 96.8525 292.008 97.1998C291.635 97.731 291.125 98.1516 290.533 98.4171C289.941 98.6827 289.288 98.7833 288.643 98.7085C287.75 98.6817 286.876 98.4436 286.093 98.0138C286.061 97.9877 286.032 97.9586 286.006 97.927L284.92 96.9177C282.928 94.8241 280.547 93.1393 277.909 91.9577C274.005 90.6311 269.813 90.3983 265.786 91.2848C262.411 92.2508 259.426 95.0726 259.025 98.5565C257.093 96.9936 254.227 97.0696 251.926 98.0573H251.872C249.311 99.0449 247.9 101.802 247.194 104.45C247.194 104.602 247.129 104.743 247.086 104.895C246.25 106.309 245.085 107.501 243.689 108.368C243.439 108.52 243.157 108.704 243.135 108.987C243.114 109.269 243.363 109.507 243.591 109.67C244.227 110.097 244.95 110.375 245.708 110.484C245.488 111.117 245.215 111.731 244.894 112.318C244.611 112.818 244.275 113.404 244.546 113.925C244.666 114.113 244.84 114.26 245.046 114.345C245.252 114.43 245.479 114.45 245.697 114.402C246.127 114.296 246.53 114.1 246.88 113.827L246.066 115.922C247.006 116.057 247.964 115.971 248.866 115.672C249.474 118.125 249.951 122.673 250.657 124.355C252.437 124.355 252.827 124.138 253.761 124.42C254.922 124.778 254.531 126.829 256.018 126.222C256.778 125.907 257.885 122.966 258.124 122.195C259.711 116.96 260.151 111.444 259.415 106.024C260.466 104.858 261.729 103.904 263.138 103.213L263.029 103.321C265.732 102.312 268.792 101.313 271.408 102.54C273.438 103.484 274.664 105.546 276.205 107.174C277.506 108.662 279.107 109.858 280.902 110.683C282.698 111.508 284.648 111.943 286.624 111.96C287.069 114.891 287.297 119.71 287.504 122.455L289.728 116.899C289.913 116.573 290.054 116.247 290.206 115.922V115.813C290.425 115.276 290.671 114.751 290.944 114.24C291.269 114.5 291.677 114.633 292.093 114.614C292.509 114.595 292.903 114.426 293.204 114.138C293.504 113.85 293.689 113.462 293.724 113.048C293.76 112.633 293.644 112.219 293.397 111.884C293.159 111.57 292.873 111.296 292.55 111.07C292.896 111.386 293.317 111.608 293.773 111.714C294.229 111.821 294.705 111.808 295.155 111.678C295.6 111.523 295.983 111.228 296.245 110.836C296.508 110.445 296.636 109.978 296.609 109.507C296.568 109.195 296.446 108.899 296.256 108.648C296.065 108.397 295.813 108.2 295.524 108.075C296.737 108.147 297.944 107.852 298.986 107.228C299.789 106.838 300.441 106.176 300.191 105.318Z" fill="#263238"/>
<path d="M262.194 99.6093C261.855 99.8954 261.536 100.204 261.239 100.532C260.489 101.476 259.996 102.597 259.806 103.788C259.654 104.607 259.589 105.44 259.611 106.273C259.611 107.174 259.719 108.129 259.817 109.149C259.931 110.209 259.978 111.275 259.958 112.34C259.939 112.912 259.877 113.482 259.773 114.044C259.703 114.641 259.478 115.21 259.122 115.694C258.958 115.89 258.745 116.038 258.505 116.124C258.264 116.21 258.005 116.23 257.755 116.182C257.271 116.106 256.827 115.869 256.496 115.509C255.954 114.794 255.613 113.947 255.508 113.057H255.703C255.448 113.798 255.082 114.497 254.618 115.129C254.153 115.716 253.481 116.104 252.74 116.215C252.395 116.255 252.046 116.199 251.731 116.052C251.439 115.91 251.197 115.683 251.037 115.401C250.883 115.137 250.805 114.837 250.809 114.533C250.818 114.253 250.921 113.986 251.102 113.773L251.21 113.86C250.646 114.54 249.943 115.091 249.148 115.477C248.941 115.581 248.727 115.671 248.508 115.748L248.204 115.824C248.271 115.781 248.344 115.748 248.421 115.726L249.05 115.423C249.815 115.014 250.49 114.457 251.037 113.784L251.145 113.871C250.993 114.083 250.911 114.337 250.911 114.598C250.911 114.859 250.993 115.113 251.145 115.325C251.29 115.58 251.51 115.785 251.775 115.911C252.062 116.031 252.376 116.076 252.686 116.041C253.388 115.921 254.015 115.531 254.434 114.956C254.889 114.337 255.254 113.658 255.519 112.937L255.649 112.622L255.725 112.959C255.827 113.81 256.153 114.619 256.669 115.303C256.956 115.618 257.337 115.831 257.755 115.911C257.968 115.948 258.188 115.929 258.392 115.855C258.596 115.78 258.777 115.654 258.916 115.488C259.244 115.033 259.453 114.503 259.524 113.946C259.618 113.397 259.676 112.843 259.697 112.286C259.721 111.224 259.677 110.162 259.567 109.106C259.48 108.097 259.394 107.131 259.394 106.219C259.384 105.375 259.456 104.531 259.611 103.701C259.817 102.483 260.341 101.341 261.13 100.391C261.438 100.072 261.798 99.8083 262.194 99.6093Z" fill="#455A64"/>
<path d="M292.615 108.444L292.539 108.509L292.29 108.693C292.167 108.799 292.032 108.89 291.888 108.965C291.703 109.091 291.507 109.2 291.302 109.29C290.005 109.914 288.572 110.205 287.135 110.137C285 110.046 282.937 109.337 281.198 108.097C279.094 106.559 277.325 104.61 275.999 102.366C275.261 101.205 274.664 100 274.002 98.9038C273.392 97.8254 272.632 96.8388 271.745 95.9734C270.952 95.1933 269.973 94.6291 268.901 94.3346C268.416 94.2086 267.914 94.1609 267.414 94.1935C266.95 94.2269 266.494 94.3256 266.057 94.4865C265.304 94.7585 264.618 95.1919 264.05 95.7564C263.609 96.1768 263.242 96.6684 262.964 97.2107C262.749 97.6818 262.592 98.1775 262.498 98.6867V98.5782C262.498 98.5022 262.498 98.4046 262.498 98.2852C262.573 97.9116 262.689 97.5476 262.845 97.1998C263.12 96.6401 263.487 96.1303 263.93 95.6912C264.507 95.1079 265.203 94.6562 265.971 94.3671C266.417 94.1978 266.884 94.0918 267.36 94.0524C267.881 94.0102 268.405 94.0542 268.912 94.1826C270.022 94.4794 271.038 95.0547 271.864 95.854C272.766 96.7262 273.537 97.7242 274.154 98.817C274.827 99.9023 275.435 101.129 276.162 102.279C277.471 104.496 279.213 106.426 281.285 107.955C282.99 109.185 285.013 109.897 287.113 110.007C288.525 110.09 289.937 109.829 291.226 109.247C291.704 109.005 292.168 108.737 292.615 108.444Z" fill="#455A64"/>
<path d="M293.408 104.135C293.302 104.231 293.185 104.315 293.06 104.385C292.732 104.596 292.387 104.781 292.029 104.938C291.503 105.173 290.959 105.366 290.401 105.513C289.713 105.679 289.013 105.788 288.307 105.839C287.6 105.868 286.892 105.836 286.19 105.741C285.62 105.653 285.057 105.519 284.508 105.34C284.134 105.227 283.771 105.082 283.423 104.906C283.173 104.786 283.043 104.71 283.054 104.689C283.065 104.667 283.618 104.917 284.551 105.188C285.096 105.342 285.651 105.454 286.212 105.524C286.899 105.609 287.593 105.638 288.285 105.611C288.979 105.56 289.668 105.459 290.347 105.307C290.896 105.167 291.437 104.994 291.964 104.786C292.865 104.417 293.386 104.092 293.408 104.135Z" fill="#455A64"/>
<path d="M235.18 287.024L227.138 337.383C227.138 337.383 216.697 399.876 216.425 412.466L243.385 412.976C243.385 412.976 251.221 353.565 256.409 344.828C261.597 336.092 272.635 266.446 272.635 266.446L235.18 287.024Z" fill="#263238"/>
<path d="M275.446 261.258C275.446 261.258 329.636 290.193 333.88 297.074C338.123 303.955 346.469 375.977 346.469 375.977L322.256 384.595L310.209 318.802L251.85 297.096C251.85 297.096 236.233 290.822 228.917 283.67C221.602 276.518 223.61 263.342 223.61 263.342L228.657 256.83L277.92 248.245L275.446 261.258Z" fill="#263238"/>
<path d="M239.738 293.156C239.956 293.29 240.189 293.396 240.433 293.471L242.462 294.252L249.973 297.052L274.718 306.332C284.389 309.957 293.169 313.191 299.529 315.449C302.72 316.588 305.303 317.478 307.126 318.075L309.188 318.759C309.426 318.853 309.674 318.918 309.926 318.954C309.704 318.833 309.472 318.732 309.232 318.65L307.202 317.869L299.692 315.069L274.925 305.757C265.254 302.121 256.474 298.897 250.114 296.629C246.923 295.544 244.34 294.599 242.517 294.002L240.455 293.33C240.22 293.255 239.981 293.197 239.738 293.156Z" fill="#455A64"/>
<path d="M275.728 261.464C273.53 261.061 271.357 260.539 269.216 259.901C265.645 258.99 262.704 258.491 262.704 258.339C264.954 258.368 267.189 258.708 269.346 259.348C271.546 259.811 273.687 260.521 275.728 261.464Z" fill="#455A64"/>
<path d="M280.536 161.506L278.365 156.155L277.453 157.512L276.607 156.112L253.413 145.714L251.46 150.555L243.862 153.474C241.488 154.388 239.388 155.897 237.765 157.857C236.141 159.816 235.049 162.16 234.594 164.664L231.761 198.841L231.837 204.376L231.034 223.272C231.761 224.509 222.178 238.803 221.895 243.893C221.613 248.983 226.758 253.194 226.758 253.194L277.833 257.069C277.833 257.069 280.416 257.449 282.554 252.727C284.421 248.592 284.269 220.254 284.269 220.254C284.269 220.254 284.389 205.06 284.888 194.684C284.931 188.437 284.4 182.199 283.303 176.049L280.536 161.506Z" fill="#EBEBEB"/>
<path d="M250.461 150.088L252.534 146.713C252.534 146.713 262.932 153.995 265.558 161.43C268.185 168.864 268.174 201.695 266.817 210.823C265.341 220.678 264.484 232.421 248.855 248.929C230.882 267.922 237.568 287.87 233.975 289.303C233.975 289.303 206.364 280.458 206.842 277.364C209.013 262.116 227.941 227.971 228.103 227.526L230.871 196.92L230.556 160.692C234.898 157.761 237.166 155.352 241.214 154.017L250.461 150.088Z" fill="#FF5100"/>
<path opacity="0.3" d="M252.578 181.41L229.167 215.121L230.209 203.638L252.578 181.41Z" fill="black"/>
<path d="M263.149 225.442C263.186 225.164 263.24 224.889 263.312 224.617C263.431 224.021 263.605 223.25 263.811 222.273C264.212 220.233 264.755 217.27 265.135 213.59C265.319 211.745 265.471 209.716 265.493 207.534C265.495 205.21 265.368 202.888 265.113 200.577C264.668 195.672 264.191 190.288 263.681 184.634C263.312 180.293 262.943 176.201 262.595 172.337V172.261V172.185L265.037 167.464L265.211 167.822L262.541 167.138H262.454V167.073C258.938 161.94 255.942 157.685 253.88 154.722C252.795 153.246 252.002 152.096 251.406 151.325C251.112 150.934 250.874 150.652 250.722 150.457C250.57 150.262 250.461 150.186 250.472 150.175C250.483 150.164 251.959 151.64 254.119 154.516C256.279 157.392 259.307 161.647 262.856 166.748L262.715 166.65L265.385 167.323L265.699 167.399L265.547 167.681L263.127 172.424V172.272C263.474 176.136 263.843 180.282 264.212 184.569C264.701 190.234 265.167 195.617 265.602 200.534C265.84 202.86 265.949 205.197 265.927 207.534C265.927 209.705 265.71 211.767 265.504 213.623C265.164 216.544 264.657 219.443 263.984 222.306C263.746 223.326 263.539 224.107 263.388 224.628C263.337 224.907 263.257 225.18 263.149 225.442Z" fill="#263238"/>
<path d="M229.221 241.722C229.221 241.722 229.08 241.885 228.809 242.124L227.583 243.144L223.111 246.758L223.035 246.389L237.644 250.73L237.383 250.785L237.47 250.709L243.645 245.282L243.754 245.738L233.335 242.927L230.318 242.07C229.945 241.98 229.582 241.857 229.232 241.701C229.599 241.736 229.962 241.801 230.318 241.896L233.335 242.601C235.918 243.22 239.597 244.132 243.906 245.217L244.394 245.347L244.014 245.673L237.861 251.099L237.774 251.175L237.654 251.284H237.513L222.937 246.834L222.536 246.715L222.872 246.465L227.528 242.97C228.07 242.524 228.635 242.108 229.221 241.722Z" fill="#263238"/>
<path d="M281.361 165.239C281.295 165.239 280.959 164.566 280.167 163.513L278.712 161.647C278.069 160.844 277.526 159.965 277.095 159.031L277.551 159.085L275.066 162.341C274.414 163.199 273.785 164.013 273.199 164.794L273.058 164.968L272.862 164.87C270.627 163.785 268.684 162.927 267.327 162.254C266.564 161.946 265.837 161.557 265.157 161.093C265.941 161.305 266.704 161.588 267.436 161.94C268.836 162.526 270.8 163.372 273.058 164.382L272.732 164.458L274.577 162.005L277.095 158.749L277.377 158.391L277.551 158.803C278.373 160.383 279.328 161.889 280.406 163.307C280.847 163.883 281.171 164.539 281.361 165.239Z" fill="#263238"/>
<path d="M277.421 159.118C277.46 159.197 277.489 159.281 277.508 159.367L277.703 160.106C277.866 160.757 278.094 161.723 278.365 162.96C278.897 165.456 279.591 169.081 280.34 173.585C280.709 175.832 281.089 178.296 281.426 180.955C281.61 182.279 281.816 183.657 281.936 185.09C282.055 186.522 282.099 187.998 282.12 189.507C282.175 192.524 282.12 195.693 282.023 198.971C281.925 202.249 281.795 205.646 281.545 209.119C281.057 216.065 280.21 222.642 279.44 228.655C278.669 234.668 277.888 240.007 276.943 244.479C275.999 248.951 274.968 252.5 274.241 254.942C273.872 256.157 273.568 257.112 273.362 257.742L273.112 258.458C273.091 258.545 273.058 258.629 273.014 258.708C272.997 258.622 272.997 258.533 273.014 258.447L273.21 257.709C273.394 257.015 273.655 256.07 273.98 254.876C274.642 252.424 275.619 248.864 276.498 244.403C277.377 239.942 278.148 234.57 278.886 228.59C279.624 222.61 280.46 216.043 280.937 209.054C281.187 205.592 281.328 202.205 281.426 198.928C281.523 195.65 281.599 192.492 281.556 189.485C281.556 187.988 281.491 186.522 281.393 185.144C281.295 183.766 281.089 182.355 280.916 181.031C280.568 178.372 280.21 175.908 279.83 173.65C279.147 169.157 278.506 165.521 278.039 163.014C277.801 161.809 277.616 160.844 277.486 160.138L277.345 159.389C277.354 159.295 277.38 159.203 277.421 159.118Z" fill="#263238"/>
<path d="M203.228 273.555C203.486 274.987 203.574 276.444 203.488 277.896C203.26 279.416 200.699 284.788 200.699 284.788C200.699 284.788 199.255 284.886 199.614 281.293C199.761 279.554 200.066 277.833 200.525 276.149L203.228 273.555Z" fill="#FFBF9D"/>
<path d="M180.284 301.198C180.284 301.198 179.709 279.101 184.473 275.986C189.238 272.871 196.108 270.331 198.474 273.327C201.411 277.137 203.618 281.457 204.986 286.069C206.039 290.383 206.747 294.774 207.102 299.201L201.198 299.342C201.198 299.342 198.55 277.636 196.347 274.629C194.144 271.623 185.548 275.443 185.092 279.448C184.636 283.453 184.831 301.079 184.831 301.079L180.284 301.198Z" fill="#455A64"/>
<path d="M164.189 334.637C163.244 325.618 161.432 305.691 160.639 296.933C160.534 295.785 160.878 294.64 161.598 293.74C162.319 292.839 163.36 292.253 164.503 292.103L217.967 285.2C219.114 285.053 220.275 285.356 221.204 286.046C222.133 286.736 222.758 287.76 222.948 288.901L228.983 325.651C229.078 326.238 229.055 326.838 228.916 327.417C228.776 327.995 228.522 328.54 228.17 329.019C227.817 329.498 227.372 329.902 226.861 330.207C226.35 330.512 225.784 330.712 225.195 330.795L169.246 338.588C168.653 338.673 168.048 338.637 167.469 338.483C166.89 338.328 166.348 338.059 165.876 337.69C165.404 337.321 165.011 336.86 164.721 336.336C164.431 335.811 164.25 335.233 164.189 334.637Z" fill="#455A64"/>
<path d="M198.745 283.648L203.239 273.729L203.032 261.703L189.694 260.108L184.777 271.178C184.777 271.178 184.354 277.147 184.777 278.504C185.2 279.861 187.252 279.85 187.252 279.85C187.556 281.706 190.323 282.248 190.323 282.248C190.942 284.267 193.482 283.692 193.482 283.692C193.482 283.692 194.513 285.971 195.337 286.21C195.708 286.273 196.09 286.212 196.423 286.036C197.464 285.552 198.29 284.702 198.745 283.648Z" fill="#FFBF9D"/>
<path d="M187.425 276.854C187.556 276.854 187.61 277.516 187.556 278.319C187.501 279.123 187.339 279.763 187.197 279.752C187.056 279.741 187.013 279.079 187.067 278.287C187.121 277.495 187.295 276.843 187.425 276.854Z" fill="#FF9A6C"/>
<path d="M190.681 278.059C190.742 278.786 190.691 279.518 190.529 280.23C190.518 280.947 190.405 281.66 190.193 282.346C189.836 280.919 190.01 279.411 190.681 278.102V278.059Z" fill="#FF9A6C"/>
<path d="M194.154 279.926C194.285 279.98 194.057 280.783 193.84 281.782C193.623 282.78 193.482 283.594 193.34 283.594C193.133 282.971 193.133 282.297 193.34 281.673C193.59 280.631 194.035 279.872 194.154 279.926Z" fill="#FF9A6C"/>
<path d="M201.763 276.811C201.426 278.157 200.938 279.46 200.308 280.696C199.821 281.991 199.187 283.225 198.42 284.376C199.222 281.717 200.345 279.166 201.763 276.778V276.811Z" fill="#FF9A6C"/>
<path d="M188.109 274.76C188.109 274.825 187.99 274.933 187.708 274.966C187.343 275.01 186.976 274.917 186.676 274.705C186.375 274.497 186.162 274.184 186.08 273.826C186.014 273.555 186.08 273.392 186.134 273.381C186.188 273.37 186.427 273.946 186.959 274.315C187.491 274.684 188.077 274.629 188.109 274.76Z" fill="#FF9A6C"/>
<path d="M191.55 276.941C191.55 277.006 191.398 277.093 191.105 277.115C190.717 277.114 190.339 276.997 190.019 276.778C189.693 276.562 189.446 276.246 189.314 275.877C189.216 275.595 189.249 275.411 189.314 275.4C189.379 275.389 189.672 275.964 190.291 276.377C190.909 276.789 191.539 276.811 191.55 276.941Z" fill="#FF9A6C"/>
<path d="M198.952 279.22C199.017 279.22 199.125 279.611 198.648 279.915C198.369 280.051 198.065 280.128 197.756 280.143C197.446 280.158 197.137 280.11 196.846 280.002C196.259 279.807 195.752 279.426 195.403 278.916C195.142 278.537 195.11 278.244 195.164 278.222C195.681 278.773 196.305 279.212 196.998 279.513C197.48 279.683 198.001 279.706 198.496 279.578C198.832 279.492 198.886 279.22 198.952 279.22Z" fill="#FF9A6C"/>
<path d="M224.956 325.217C224.956 325.217 224.956 325.119 224.869 324.913C224.782 324.706 224.761 324.37 224.674 323.979L223.958 320.409C223.35 317.261 222.492 312.811 221.429 307.243C220.897 304.465 220.343 301.426 219.714 298.159C219.399 296.52 219.084 294.827 218.759 293.091C218.672 292.657 218.596 292.212 218.509 291.778L218.379 291.126C218.345 290.939 218.259 290.766 218.129 290.627C218.009 290.481 217.852 290.37 217.675 290.303C217.498 290.236 217.307 290.217 217.12 290.247L215.742 290.432L191.604 293.568L167.466 296.672C167.036 296.691 166.612 296.775 166.207 296.922C166.043 297.016 165.904 297.15 165.804 297.311C165.703 297.472 165.644 297.655 165.632 297.845C165.632 298.68 165.751 299.624 165.806 300.493C165.936 302.262 166.055 303.977 166.175 305.637C166.406 308.958 166.62 312.037 166.815 314.873C167.195 320.484 167.499 325.043 167.716 328.245C167.814 329.786 167.879 331.001 167.933 331.88V332.825C167.945 332.933 167.945 333.042 167.933 333.15C167.921 333.042 167.921 332.933 167.933 332.825L167.835 331.891C167.748 331.012 167.651 329.797 167.51 328.255C167.249 325.065 166.88 320.506 166.424 314.895C166.196 312.073 165.958 308.991 165.708 305.67C165.578 304.009 165.447 302.294 165.306 300.536C165.252 299.635 165.154 298.789 165.122 297.801C165.141 297.53 165.227 297.268 165.37 297.037C165.514 296.806 165.712 296.614 165.947 296.477C166.177 296.349 166.433 296.271 166.696 296.249L167.39 296.162L191.539 293.015L215.644 289.911L217.022 289.737C217.429 289.686 217.841 289.788 218.178 290.022C218.514 290.257 218.752 290.607 218.846 291.007L218.976 291.68C219.052 292.125 219.128 292.559 219.215 292.993C219.529 294.74 219.844 296.434 220.137 298.072C220.734 301.328 221.288 304.389 221.787 307.178C222.775 312.714 223.578 317.218 224.142 320.365C224.403 321.895 224.609 323.1 224.75 323.958C224.815 324.348 224.858 324.652 224.902 324.902C224.932 325.004 224.95 325.11 224.956 325.217Z" fill="#263238"/>
<path d="M199.307 298.283L186.726 299.832C186.416 299.871 186.197 300.152 186.235 300.462L186.524 302.81C186.562 303.119 186.844 303.339 187.153 303.301L199.735 301.752C200.044 301.714 200.264 301.432 200.226 301.123L199.937 298.774C199.898 298.465 199.617 298.245 199.307 298.283Z" fill="#263238"/>
<path d="M247.477 186.37L215.145 218.507L206.462 263.776L186.926 261.443L194.089 216.944C195.217 209.904 198.02 203.237 202.262 197.506L226.497 164.664C228.098 162.334 230.212 160.403 232.677 159.02C235.142 157.637 237.892 156.838 240.715 156.687C244.058 156.647 247.29 157.881 249.756 160.138C254.64 165.402 254.227 172.359 254.097 174.475" fill="#FF5100"/>
<path d="M254.065 174.432C254.18 173.554 254.227 172.669 254.206 171.784C254.193 169.233 253.677 166.71 252.686 164.36C251.958 162.657 250.924 161.101 249.636 159.769C247.995 158.316 246.006 157.31 243.862 156.85C241.375 156.318 238.792 156.453 236.374 157.24C233.65 158.068 231.155 159.513 229.08 161.462C227.968 162.503 226.971 163.66 226.107 164.914L223.285 168.712L217.304 176.776L204.118 194.554C202.967 196.128 201.752 197.68 200.645 199.362C197.227 204.589 194.932 210.469 193.905 216.629C192.559 225.008 191.159 233.68 189.726 242.558C188.706 248.951 187.697 255.235 186.709 261.356V261.649H187.002L206.538 263.971H206.799V263.722C210.055 246.736 212.985 231.368 215.481 218.442L215.416 218.561L238.859 195.053L245.273 188.541L246.934 186.859C247.303 186.468 247.477 186.262 247.477 186.262C247.477 186.262 247.27 186.436 246.891 186.805L245.187 188.541L238.675 194.912L214.993 218.323V218.399C212.486 231.314 209.566 246.617 206.212 263.646L206.516 263.429L186.98 261.084L187.23 261.41C188.218 255.278 189.227 248.994 190.258 242.612C191.68 233.723 193.069 225.052 194.415 216.673C195.094 212.584 196.339 208.609 198.116 204.864C198.974 203.051 199.956 201.299 201.057 199.622C202.142 197.962 203.347 196.366 204.498 194.825C209.132 188.552 213.528 182.594 217.641 177.004L223.599 168.929L226.41 165.12C227.259 163.889 228.23 162.747 229.308 161.712C231.335 159.797 233.775 158.375 236.439 157.555C238.795 156.76 241.321 156.61 243.754 157.121C245.869 157.554 247.834 158.535 249.452 159.964C250.727 161.259 251.757 162.774 252.491 164.436C253.497 166.758 254.043 169.254 254.097 171.784C254.097 172.641 254.097 173.303 254.097 173.748C254.097 174.193 254.065 174.432 254.065 174.432Z" fill="#263238"/>
</svg>
